<svg width="700" height="200" viewBox="0 0 700 200" fill="none" xmlns="http://www.w3.org/2000/svg">
<rect width="700" height="200" fill="white"/>
<g filter="url(#filter0_d)">
<path d="M151.82 141V43H163.02V141H151.82ZM205.588 124.06C205.588 118.74 203.628 114.68 199.708 111.88L190.048 105.02C182.861 100.26 179.268 93.2133 179.268 83.88C179.268 76.32 180.854 71 184.028 67.92C187.294 64.84 191.681 63.3 197.188 63.3C202.694 63.3 206.988 64.7467 210.068 67.64C213.148 70.5333 215.014 75.8067 215.668 83.46L206.008 85.42C205.541 76.3667 202.648 71.84 197.328 71.84C192.101 71.84 189.488 75.5267 189.488 82.9C189.488 88.8733 191.448 93.3067 195.368 96.2L204.608 102.64C206.941 104.227 208.761 105.673 210.068 106.98C211.468 108.193 212.774 110.293 213.988 113.28C215.294 116.173 215.948 119.58 215.948 123.5C215.948 130.687 214.268 135.773 210.908 138.76C207.548 141.653 202.974 143.1 197.188 143.1C191.494 143.1 187.014 141.42 183.748 138.06C180.481 134.607 178.474 128.587 177.728 120L187.668 118.18C188.041 124.247 188.974 128.493 190.468 130.92C192.054 133.347 194.201 134.56 196.908 134.56C202.694 134.56 205.588 131.06 205.588 124.06ZM255.49 124.06C255.49 118.74 253.53 114.68 249.61 111.88L239.95 105.02C232.763 100.26 229.17 93.2133 229.17 83.88C229.17 76.32 230.757 71 233.93 67.92C237.197 64.84 241.583 63.3 247.09 63.3C252.597 63.3 256.89 64.7467 259.97 67.64C263.05 70.5333 264.917 75.8067 265.57 83.46L255.91 85.42C255.443 76.3667 252.55 71.84 247.23 71.84C242.003 71.84 239.39 75.5267 239.39 82.9C239.39 88.8733 241.35 93.3067 245.27 96.2L254.51 102.64C256.843 104.227 258.663 105.673 259.97 106.98C261.37 108.193 262.677 110.293 263.89 113.28C265.197 116.173 265.85 119.58 265.85 123.5C265.85 130.687 264.17 135.773 260.81 138.76C257.45 141.653 252.877 143.1 247.09 143.1C241.397 143.1 236.917 141.42 233.65 138.06C230.383 134.607 228.377 128.587 227.63 120L237.57 118.18C237.943 124.247 238.877 128.493 240.37 130.92C241.957 133.347 244.103 134.56 246.81 134.56C252.597 134.56 255.49 131.06 255.49 124.06ZM306.792 65.4H317.432V141H310.852L308.612 131.76C306.466 139.32 301.939 143.1 295.032 143.1C289.899 143.1 286.026 141.513 283.412 138.34C280.799 135.167 279.492 129.1 279.492 120.14V65.4H290.132V120.98C290.132 126.113 290.739 129.613 291.952 131.48C293.259 133.347 295.172 134.28 297.692 134.28C303.386 134.28 306.419 129.753 306.792 120.7V65.4ZM372.26 121.4C371.607 129.52 369.693 135.167 366.52 138.34C363.347 141.513 358.727 143.1 352.66 143.1C346.687 143.1 341.927 141 338.38 136.8C334.927 132.507 333.2 124.807 333.2 113.7V92.7C333.2 81.5933 334.927 73.94 338.38 69.74C341.927 65.4467 346.873 63.3 353.22 63.3C359.567 63.3 364.373 65.4 367.64 69.6C370.907 73.8 372.54 81.5 372.54 92.7V107.68H343.84V115.66C343.84 128.167 346.827 134.42 352.8 134.42C355.693 134.42 357.933 133.393 359.52 131.34C361.107 129.287 362.227 125.46 362.88 119.86L372.26 121.4ZM343.84 90.74V98.72H361.76V90.74C361.76 78.2333 358.82 71.98 352.94 71.98C346.873 71.98 343.84 78.2333 343.84 90.74ZM440.644 141V96.62H419.504V141H408.304V43H419.504V87.66H440.644V43H451.704V141H440.644ZM495.601 65.4H506.241V141H499.661L497.421 131.76C495.274 139.32 490.748 143.1 483.841 143.1C478.708 143.1 474.834 141.513 472.221 138.34C469.608 135.167 468.301 129.1 468.301 120.14V65.4H478.941V120.98C478.941 126.113 479.548 129.613 480.761 131.48C482.068 133.347 483.981 134.28 486.501 134.28C492.194 134.28 495.228 129.753 495.601 120.7V65.4ZM534.748 141H523.968V65.4H530.548L533.348 77.44C535.308 68.0133 540.208 63.3 548.048 63.3C552.902 63.3 556.588 65.4467 559.108 69.74C561.722 74.0333 563.028 81.8733 563.028 93.26V141H552.248V89.48C552.248 77.8133 549.962 71.98 545.388 71.98C538.482 71.98 534.935 81.9667 534.748 101.94V141ZM573.73 74.08V65.4H581.15L584.93 46.78H591.37V65.4H601.31V74.08H591.37V126.72C591.37 131.667 592.723 134.14 595.43 134.14C597.203 134.14 599.07 133.393 601.03 131.9L603.13 140.16C599.956 142.12 596.69 143.1 593.33 143.1C584.93 143.1 580.73 136.893 580.73 124.48V74.08H573.73ZM650.346 121.4C649.692 129.52 647.779 135.167 644.606 138.34C641.432 141.513 636.812 143.1 630.746 143.1C624.772 143.1 620.012 141 616.466 136.8C613.012 132.507 611.286 124.807 611.286 113.7V92.7C611.286 81.5933 613.012 73.94 616.466 69.74C620.012 65.4467 624.959 63.3 631.306 63.3C637.652 63.3 642.459 65.4 645.726 69.6C648.992 73.8 650.626 81.5 650.626 92.7V107.68H621.926V115.66C621.926 128.167 624.912 134.42 630.886 134.42C633.779 134.42 636.019 133.393 637.606 131.34C639.192 129.287 640.312 125.46 640.966 119.86L650.346 121.4ZM621.926 90.74V98.72H639.846V90.74C639.846 78.2333 636.906 71.98 631.026 71.98C624.959 71.98 621.926 78.2333 621.926 90.74ZM689.673 63.3L692.473 63.44L691.633 75.34C690.326 74.6867 689.066 74.36 687.853 74.36C680.759 74.36 677.166 81.7333 677.073 96.48V141H666.293V65.4H672.873L675.953 78.28C677.819 68.2933 682.393 63.3 689.673 63.3Z" fill="#078B7C"/>
</g>
<g clip-path="url(#clip0)" filter="url(#filter1_b)">
<path d="M104.589 100.534L99.3944 95.0552C98.9256 94.5608 98.2899 94.2829 97.6269 94.2829H94.6171V88.9309H102.821C104.202 88.9309 105.321 87.7505 105.321 86.2942C105.321 84.8379 104.202 83.6575 102.821 83.6575H94.6171V78.3058H97.6269C98.2899 78.3058 98.9256 78.0279 99.3944 77.5335L104.589 72.0544C105.565 71.0248 105.565 69.3552 104.589 68.3256C103.613 67.2959 102.03 67.2959 101.053 68.3258L96.5909 73.0326H92.1171H92.0986V71.6847C92.0986 68.9992 91.1454 66.5458 89.5802 64.6753V59.6149C89.5802 58.1587 88.4607 56.9782 87.0802 56.9782C85.6994 56.9782 84.5802 58.1587 84.5802 59.6149V61.4219C83.7692 61.1988 82.9189 61.0794 82.0427 61.0794C81.1667 61.0794 80.3167 61.1988 79.5057 61.4219V59.6149C79.5057 58.1587 78.3864 56.9782 77.0057 56.9782C75.6255 56.9782 74.5057 58.1587 74.5057 59.6149V64.6756C72.9402 66.546 71.9872 68.9995 71.9872 71.685V73.0329H71.9692H67.495L63.0325 68.3261C62.0565 67.2965 60.4735 67.2962 59.4973 68.3258C58.5208 69.3555 58.5208 71.025 59.4968 72.0547L64.6915 77.5337C65.1603 78.0284 65.796 78.306 66.459 78.306H69.4687V83.6578H61.2645C59.8838 83.6578 58.7645 84.8382 58.7645 86.2945C58.7645 87.7507 59.8838 88.9312 61.2645 88.9312H69.4687V94.2832H66.459C65.796 94.2832 65.1603 94.5611 64.6915 95.0555L59.4968 100.534C58.5208 101.564 58.5208 103.233 59.4968 104.263C59.985 104.778 60.6248 105.035 61.2648 105.035C61.9045 105.035 62.544 104.778 63.0323 104.263L67.4947 99.5566H69.7192C70.8817 105.61 75.9657 110.182 82.0434 110.182C88.1209 110.182 93.2046 105.61 94.3671 99.5566H96.5914L101.054 104.263C101.542 104.778 102.182 105.035 102.821 105.035C103.462 105.035 104.101 104.778 104.589 104.263C105.565 103.233 105.565 101.564 104.589 100.534ZM82.0429 66.3522C84.8304 66.3522 87.0987 68.7443 87.0987 71.6845V73.0323H76.987V71.6845H76.9867C76.9867 68.7443 79.2547 66.3522 82.0429 66.3522ZM89.6169 96.9199C89.6172 100.401 87.4944 103.367 84.5429 104.459V86.2945C84.5429 84.8382 83.4237 83.6578 82.0429 83.6578C80.6627 83.6578 79.5429 84.8382 79.5429 86.2945V104.459C76.5917 103.367 74.4687 100.401 74.4687 96.9199V78.306H74.4867H89.5984H89.6169V96.9199Z" fill="black"/>
<path d="M82.0437 33C55.6003 33 34.0869 55.6902 34.0869 83.58C34.0869 94.5431 37.4126 104.702 43.0541 112.995L38.5566 117.739L38.4336 117.61C37.9649 117.115 37.3291 116.837 36.6661 116.837C36.0031 116.837 35.3669 117.115 34.8981 117.61L5.07325 149.066C3.09225 151.155 2.00101 153.942 2.00101 156.913C2.00051 159.884 3.09175 162.67 5.07325 164.76C7.05424 166.849 9.69623 168 12.5132 168C15.3302 168 17.9722 166.849 19.9532 164.76L49.7778 133.304C50.7543 132.274 50.7543 130.605 49.7778 129.575L49.6548 129.445L54.1523 124.701C62.0165 130.651 71.6487 134.159 82.0437 134.159C108.487 134.159 130.001 111.469 130.001 83.58C130.001 55.6902 108.487 33 82.0437 33ZM16.4175 161.031C15.381 162.124 13.9942 162.727 12.5132 162.727C11.0322 162.727 9.64548 162.124 8.60798 161.03C7.57149 159.937 7.00049 158.475 7.00099 156.913C7.00099 155.351 7.57174 153.888 8.60898 152.795L36.6661 123.203L36.7789 123.322C36.7824 123.325 36.7851 123.329 36.7881 123.333L44.3516 131.309L44.4746 131.439L16.4175 161.031ZM46.1191 125.716L46.0561 125.649L42.0919 121.468L46.1968 117.139C47.4591 118.637 48.8038 120.055 50.2241 121.386L46.1191 125.716ZM82.0437 128.885C58.3573 128.885 39.0869 108.561 39.0869 83.58C39.0869 58.5977 58.3573 38.2734 82.0437 38.2734C105.73 38.2734 125.001 58.5977 125.001 83.58C125.001 108.561 105.73 128.885 82.0437 128.885Z" fill="#078B7C"/>
<path d="M118.138 71.1959C117.71 69.8111 116.299 69.0543 114.987 69.5042C113.674 69.9548 112.956 71.4424 113.383 72.8272C115.36 79.237 115.531 86.0659 113.877 92.5762C113.519 93.9828 114.311 95.4285 115.644 95.8056C115.861 95.8668 116.079 95.896 116.293 95.896C117.397 95.896 118.407 95.1193 118.706 93.9414C120.611 86.4434 120.415 78.5781 118.138 71.1959Z" fill="#078B7C"/>
<path d="M114.961 63.6504L114.917 63.5692C114.229 62.3065 112.702 61.8704 111.504 62.596C110.307 63.3211 109.894 64.9329 110.582 66.1956L110.62 66.2668C111.081 67.1185 111.925 67.5957 112.792 67.5957C113.213 67.5957 113.64 67.4837 114.031 67.2479C115.229 66.5252 115.646 64.9147 114.961 63.6504Z" fill="#078B7C"/>
</g>
<defs>
<filter id="filter0_d" x="147.82" y="43" width="548.653" height="108.1" filterUnits="userSpaceOnUse" color-interpolation-filters="sRGB">
<feFlood flood-opacity="0" result="BackgroundImageFix"/>
<feColorMatrix in="SourceAlpha" type="matrix" values="0 0 0 0 0 0 0 0 0 0 0 0 0 0 0 0 0 0 127 0" result="hardAlpha"/>
<feOffset dy="4"/>
<feGaussianBlur stdDeviation="2"/>
<feComposite in2="hardAlpha" operator="out"/>
<feColorMatrix type="matrix" values="0 0 0 0 0 0 0 0 0 0 0 0 0 0 0 0 0 0 0.25 0"/>
<feBlend mode="normal" in2="BackgroundImageFix" result="effect1_dropShadow"/>
<feBlend mode="normal" in="SourceGraphic" in2="effect1_dropShadow" result="shape"/>
</filter>
<filter id="filter1_b" x="-2" y="29" width="136" height="143" filterUnits="userSpaceOnUse" color-interpolation-filters="sRGB">
<feFlood flood-opacity="0" result="BackgroundImageFix"/>
<feGaussianBlur in="BackgroundImage" stdDeviation="2"/>
<feComposite in2="SourceAlpha" operator="in" result="effect1_backgroundBlur"/>
<feBlend mode="normal" in="SourceGraphic" in2="effect1_backgroundBlur" result="shape"/>
</filter>
<clipPath id="clip0">
<rect width="128" height="135" fill="white" transform="translate(2 33)"/>
</clipPath>
</defs>
</svg>
